<?xml version="1.0" standalone="no"?>
<!DOCTYPE svg PUBLIC "-//W3C//DTD SVG 1.1//EN" "http://www.w3.org/Graphics/SVG/1.1/DTD/svg11.dtd" >
<!--
2013-9-30: Created.
-->
<svg>
<metadata>
Created by iconfont
</metadata>
<defs>

<font id="iconfont" horiz-adv-x="1024" >
  <font-face
    font-family="iconfont"
    font-weight="500"
    font-stretch="normal"
    units-per-em="1024"
    ascent="896"
    descent="-128"
  />
    <missing-glyph />
    
    <glyph glyph-name="x" unicode="x" horiz-adv-x="1001"
d="M281 543q-27 -1 -53 -1h-83q-18 0 -36.5 -6t-32.5 -18.5t-23 -32t-9 -45.5v-76h912v41q0 16 -0.5 30t-0.5 18q0 13 -5 29t-17 29.5t-31.5 22.5t-49.5 9h-133v-97h-438v97zM955 310v-52q0 -23 0.5 -52t0.5 -58t-10.5 -47.5t-26 -30t-33 -16t-31.5 -4.5q-14 -1 -29.5 -0.5
t-29.5 0.5h-32l-45 128h-439l-44 -128h-29h-34q-20 0 -45 1q-25 0 -41 9.5t-25.5 23t-13.5 29.5t-4 30v167h911zM163 247q-12 0 -21 -8.5t-9 -21.5t9 -21.5t21 -8.5q13 0 22 8.5t9 21.5t-9 21.5t-22 8.5zM316 123q-8 -26 -14 -48q-5 -19 -10.5 -37t-7.5 -25t-3 -15t1 -14.5
t9.5 -10.5t21.5 -4h37h67h81h80h64h36q23 0 34 12t2 38q-5 13 -9.5 30.5t-9.5 34.5q-5 19 -11 39h-368zM336 498v228q0 11 2.5 23t10 21.5t20.5 15.5t34 6h188q31 0 51.5 -14.5t20.5 -52.5v-227h-327z" />
    

    
    <glyph glyph-name="caipiao" unicode="&#58880;" d="M500.736 418.816q-21.504 0-34.816 13.312-13.312 14.336-13.312 35.84 0 20.48 13.312 33.792 12.288 13.312 32.768 13.312 21.504 0 34.816-13.312 13.312-12.288 13.312-33.792 0-22.528-13.312-35.84-12.288-13.312-32.768-13.312zM549.888 322.56q19.456-16.384 19.456-45.056 0-26.624-18.432-43.008-19.456-16.384-49.152-16.384-30.72 0-50.176 17.408-19.456 18.432-19.456 44.032t20.48 43.008q19.456 18.432 50.176 18.432 28.672 0 47.104-18.432zM930.816 736.256q38.912 0 66.048-27.136t27.136-66.048l0-558.08q0-38.912-27.136-66.048t-66.048-27.136l-93.184 0 0 46.08-47.104 0 0-46.08-697.344 0q-38.912 0-66.048 27.136t-27.136 66.048l0 558.08q0 38.912 27.136 66.048t66.048 27.136l697.344 0 0-47.104 47.104 0 0 47.104 93.184 0zM277.504 584.704l-123.904 0-48.128-77.824 80.896 0 0-355.328 91.136 0 0 433.152zM632.832 204.8q18.432 30.72 18.432 68.608 0 34.816-16.384 63.488-15.36 30.72-45.056 49.152 21.504 22.528 31.744 45.056 8.192 21.504 8.192 43.008 0 34.816-16.384 61.44-17.408 29.696-46.08 45.056-29.696 15.36-65.536 15.36-39.936 0-68.608-15.36-29.696-15.36-46.08-44.032-16.384-26.624-16.384-61.44 0-25.6 10.24-47.104 8.192-20.48 29.696-41.984-31.744-23.552-45.056-50.176-15.36-29.696-15.36-62.464 0-38.912 18.432-70.656t50.176-47.104q30.72-15.36 83.968-15.36 49.152 0 78.848 16.384 30.72 14.336 51.2 48.128zM837.632 177.152l-47.104 0 0-46.08 47.104 0 0 46.08zM837.632 316.416l-47.104 0 0-47.104 47.104 0 0 47.104zM837.632 455.68l-47.104 0 0-47.104 47.104 0 0 47.104zM837.632 594.944l-47.104 0 0-46.08 47.104 0 0 46.08z"  horiz-adv-x="1024" />

    
    <glyph glyph-name="icon" unicode="&#58903;" d="M757.206016 166.064896c0-98.934784-68.960256-183.469056-196.706304-204.588032l0-114.562048L450.320384-153.085184 450.320384-47.38176c-74.556416 3.308544-146.753536 24.431616-189.021184 47.838208l33.287168 130.084864c46.696448-25.550848 112.323584-48.960512 184.639488-48.960512 64.533504 0 107.844608 25.550848 107.844608 68.911104 0 42.246144-35.674112 69.011456-119.062528 96.847872-118.890496 40.050688-200.040448 95.58016-200.040448 203.47392 0 98.93888 68.839424 175.731712 187.777024 197.972992L455.744512 754.439936l109.083648 0 0-97.820672c73.389056-2.286592 123.4176-18.878464 162.35008-36.788224l-33.383424-125.657088c-27.83744 13.431808-80.106496 39.027712-160.15872 39.027712-72.19712 0-95.629312-32.264192-95.629312-63.4112 0-35.523584 38.982656-60.101632 134.608896-94.457856C704.891904 328.563456 757.157888 267.389696 757.206016 166.064896z"  horiz-adv-x="1024" />

    
    <glyph glyph-name="privilege" unicode="&#58948;" d="M125.801-158.543v627.573h140.582c-27.131 28.216-44.032 66.378-44.032 108.619 0 86.65 70.244 156.893 156.893 156.893 56.148 0 105.036-29.724 132.756-74.062 27.72 44.338 76.608 74.062 132.756 74.062 86.65 0 156.892-70.244 156.892-156.893 0-42.24-16.901-80.402-44.054-108.619h140.604v-627.574l-772.397-0zM487.862 589.718h-1.202c-6.082 54.239-51.575 96.55-107.416 96.55-59.99 0-108.619-48.629-108.619-108.619 0-59.989 48.629-108.619 108.619-108.619 4.125 0 8.038 0.779 12.069 1.202v-1.202h96.55l0 120.688zM487.862 420.756h-313.787v-241.375h313.787v241.375zM487.862 131.107h-313.787v-241.374h313.787v241.374zM644.755 686.267c-55.841 0-101.334-42.311-107.416-96.55h-1.202v-120.687h96.55v1.202c4.031-0.424 7.944-1.202 12.069-1.202 59.99 0 108.619 48.629 108.619 108.619 0 59.99-48.629 108.618-108.619 108.618zM849.923 420.756h-313.787v-241.375h313.787v241.375zM849.923 131.107h-313.787v-241.374h313.787v241.374z"  horiz-adv-x="1024" />

    
    <glyph glyph-name="money" unicode="&#58945;" d="M512 780.78c-272.154 0-492.78-220.625-492.78-492.78s220.625-492.78 492.78-492.78 492.78 220.625 492.78 492.78-220.626 492.78-492.78 492.78zM717.79 338.801v-70.634l-161.643-0v-98.254h161.643v-71.087l-161.643 0v-141.269h-88.293l-0 141.268h-166.625v71.087h166.624v98.254h-166.624v70.634l140.363 0-171.604 279.644h100.971l119.988-209.009c6.636-13.887 14.185-31.546 22.64-52.976h1.811c6.034 17.206 13.88 35.615 23.544 55.241l120.441 206.744h94.632l-173.87-279.643h137.646z"  horiz-adv-x="1024" />

    
    <glyph glyph-name="qingchuhuancun" unicode="&#58964;" d="M866.351 558.73 157.635 558.73c-8.647 0-15.635-6.89-15.635-15.509l46.89-626.359c0-8.648 7.001-18.41 15.649-18.41l614.936 0c8.634 0 15.621 9.817 15.621 18.466L882 541.799C882 550.418 874.984 558.73 866.351 558.73zM807.16-72.984 216.826-72.984l-45.3 603.151 681.045 0L807.16-72.984zM497.718 414.268l28.563 0 0-371.325-28.563 0 0 371.325ZM326.338 414.268l28.563 0 0-371.325-28.563 0 0 371.325ZM669.1 414.268l28.563 0 0-371.325-28.563 0 0 371.325ZM876.184 658.703 669.1 658.703 669.1 701.548 354.901 701.548 354.901 658.703 147.815 658.703 147.815 630.139 876.184 630.139Z"  horiz-adv-x="1024" />

    
    <glyph glyph-name="zhenshixingming" unicode="&#58923;" d="M707.076954-32.168398c-141.386124 0-254.496252 113.171526-254.496252 254.633375 0 18.302855 1.908466 36.126802 5.51255 53.298903-11.361769-1.49505-22.837124-2.264577-34.412764-2.264577-42.612517 0-101.626585 15.059997-132.747373 29.526477-104.238063-41.539069-177.162956-142.342916-186.04423-257.465886l-0.381693-5.031597-0.50756 0c0.004093-0.24764 0.01842-0.49528 0.01842-0.74292 0-13.540388-5.221932-24.517393-18.756179-24.517393-13.533224 0-18.751063 10.977006-18.751063 24.517393 0 0.24764 0.00921 0.49528 0.01842 0.74292l-0.01842 0 0.030699 0.458441c0.004093 0.103354 0.013303 0.206708 0.01842 0.314155l0.337691 5.045923c8.089235 121.140011 79.585593 230.861972 187.296757 288.37792-60.001559 49.818639-94.237291 122.075313-94.237291 199.540615 0 143.773498 118.310569 260.749676 263.745916 260.749676 145.43023 0 263.7408-116.976178 263.7408-260.749676 0-19.939121-2.27481-39.532365-6.670933-58.489112 8.642844 0.87288 17.417695 1.322112 26.305109 1.322112 141.385101 0 254.495228-113.171526 254.495228-254.633375S848.461031-32.168398 707.076954-32.168398zM423.697885 754.049011c-116.206652 0-222.248803-104.939027-222.248803-219.760123 0-114.844631 106.042151-219.800032 222.248803-219.800032 16.34527 0 32.488948 2.076288 48.164976 5.963829 28.960589 70.178339 88.233554 124.184347 161.845085 146.044214 7.909134 21.665439 12.264325 44.525076 12.264325 67.793012C645.972271 649.109983 539.91784 754.049011 423.697885 754.049011zM707.076954 429.943378c-14.999622 0-29.6636-1.674129-43.824111-4.814656-27.270087-6.048763-52.659337-17.58654-74.910107-33.375132-13.734816-9.744945-26.276457-21.10262-37.325094-33.785477-17.643845-20.252253-31.487132-43.87016-40.325427-69.654406-7.114025-20.756743-10.986215-42.914392-10.986215-65.847707 0-113.171526 94.259804-207.478402 207.370954-207.478402 113.109104 0 207.364815 94.306876 207.364815 207.478402C914.441768 335.636502 820.186058 429.943378 707.076954 429.943378zM688.22663 90.433918 579.825758 198.888002l32.990369 33.006741 75.40948-70.727855 146.095379 146.175197 37.705763-33.007765L688.22663 90.433918z"  horiz-adv-x="1024" />

    
    <glyph glyph-name="querenmima" unicode="&#58936;" d="M792.833083 497.673969l-25.03007 0 0 61.025888c0.385786 5.694699 0.580215 11.373025 0.580215 16.884552 0 66.646909-26.010397 129.304971-73.240071 176.433338-47.226604 47.128367-110.024859 73.081459-176.810938 73.081459-66.792219 0-129.590474-25.953092-176.814008-73.081459-47.226604-47.128367-73.237001-109.786429-73.237001-176.433338l0-77.911464-24.454972 0c-67.586304 0-122.57571-54.865585-122.57571-122.31579l0-303.868729c0-67.447135 54.989405-122.31272 122.57571-122.31272l549.008892 0c67.589374 0 122.57571 54.865585 122.57571 122.31272L915.410839 375.363296C915.408793 442.807361 860.422458 497.673969 792.833083 497.673969zM324.574307 575.58441c0 106.60497 86.916559 193.335287 193.756889 193.335287 106.835214 0 193.750749-86.730317 193.750749-193.335287 0-4.517897-0.172939-9.212826-0.506537-13.930267l-0.068562-0.991584 0-62.989613-386.93254 0L324.574307 575.58441zM859.113649 71.48945l-0.005117 0c0-36.46654-29.729092-66.13014-66.274426-66.13014L243.824191 5.35931c-36.546358 0-66.277496 29.662577-66.277496 66.13014L177.546695 375.363296c0 36.46654 29.731138 66.13014 66.277496 66.13014l24.449855 0 499.527944 0 25.03007 0c36.546358 0 66.280566-29.662577 66.280566-66.13014L859.112626 71.48945zM688.358637 352.728786 472.15962 143.051299l-95.306646 98.270141c-10.527774 10.853186-27.861558 11.121292-38.717813 0.591471-10.853186-10.524704-11.119245-27.858488-0.591471-38.717813L451.91453 85.272361c10.527774-10.853186 27.861558-11.119245 38.717813-0.594541l235.849566 228.744751c10.853186 10.527774 11.119245 27.861558 0.591471 38.714743C716.545606 362.99357 699.211822 363.25963 688.358637 352.728786z"  horiz-adv-x="1024" />

    
    <glyph glyph-name="lanqiu" unicode="&#58900;" d="M963.84955 412.92682c-34.169217-17.493419-78.226642-38.34226-134.300752-63.151295-67.730591-29.962405-134.206608-48.866964-198.287065-59.372226 40.910759-141.662417 173.548638-210.066343 203.226564-223.802182 80.556711 81.422428 130.304741 193.386452 130.304741 316.979328C964.792015 393.44 964.473767 403.224854 963.84955 412.92682zM311.973826 344.89947c24.727171-5.882987 50.867528-10.828626 78.335113-14.459317-18.914792 216.184691 48.749284 399.686005 99.507318 503.202637C361.866143 826.8552 248.07347 766.712425 170.285826 675.048749 238.827899 607.783763 332.168774 487.46342 311.973826 344.89947zM256.385786 367.224941c9.56689 117.194142-57.978483 209.597669-117.008924 266.908956-36.415374-54.351885-61.306274-117.070322-71.209832-184.659697 37.280068-24.784476 101.483322-61.573357 187.589422-88.970334C255.985674 362.732627 256.201591 364.968551 256.385786 367.224941zM620.262214 350.611565c0.467651-5.726421 1.083681-11.357675 1.837858-16.893762 217.771839 33.971719 317.222875 142.483108 329.833077 157.200298-19.909445 81.495082-61.977563 154.300248-119.457696 211.670887C757.827313 643.322164 607.735923 504.052237 620.262214 350.611565zM429.425841 379.241626c0.732687-18.411325 1.969864-36.155455 3.6399-53.256948 29.716812-2.27174 60.794621-2.944052 93.143377-1.589195 15.443737 0.645706 30.413684 1.666966 44.933375 3.013637-17.793248 183.854355 147.3213 347.147418 221.457788 410.55147-68.898183 54.224995-154.001443 88.770789-246.846014 95.217618C501.146303 761.3503 420.67248 599.738529 429.425841 379.241626zM653.48999 147.071869c-39.35124 45.597501-62.916958 91.474364-74.583672 136.51928-48.620347-4.712325-95.605452-4.805446-140.424216-1.503237 34.913161-232.869698 150.821007-329.99169 150.821007-329.99169s0.807389-4.882194 1.880837-12.634762c68.858274 11.873422 132.375913 39.34817 186.759521 78.685084C748.831428 42.525792 708.630844 83.180723 653.48999 147.071869zM395.341558 286.356123c-32.225959 4.003174-63.154365 9.657964-92.571349 16.460904-13.3214-44.868907-38.534642-91.539856-79.612199-139.132804-21.681812-25.12626-41.040718-46.638203-58.337663-65.001433 82.649372-101.199866 208.404494-165.813466 349.259522-165.813466 1.263783 0 2.521426 0.027629 3.78214 0.037862-17.472953 35.294854-38.657438 82.057901-64.288189 143.023414C423.293167 147.947819 404.892075 218.546737 395.341558 286.356123zM63.450612 392.29185c-0.055259-2.89698-0.082888-5.801123-0.082888-8.711406 0-88.893586 25.738198-171.771155 70.160943-241.5985 45.781696 38.325887 94.644567 95.704712 114.615411 175.188998C172.341648 339.494367 109.216959 368.110101 63.450612 392.29185z"  horiz-adv-x="1024" />

    
    <glyph glyph-name="yanzhengma" unicode="&#58913;" d="M512.3 18.2l-6.3 2.3c-120.4 43.8-218 131.1-274.8 245.9-56.6 114.2-67.3 244.2-30.1 366.1l4 13 13.6 0c103 0.2 200.6 34 282.2 97.8l11.4 8.9 11.3-8.9c81.3-63.8 179-97.6 282.4-97.8l13.6 0 4-13c37.2-121.8 26.5-251.8-30.1-366.1C736.6 151.7 639 64.3 518.6 20.5L512.3 18.2zM232.6 608.9C170 380.8 290.7 141.7 512.3 57.5 733.9 141.7 854.7 380.8 792 608.9c-51.5 1.5-102 10.9-150.3 28-46.4 16.4-89.9 39.5-129.5 68.8-39.7-29.3-83.2-52.4-129.4-68.8C334.5 619.8 284 610.4 232.6 608.9zM478.6 249.9c-4.7 0-9.4 1.8-13 5.4L361.5 359.4c-7.2 7.2-7.2 18.8 0 26 7.2 7.2 18.8 7.2 26 0l91.1-91.1 195.3 195.3c7.2 7.2 18.8 7.2 26 0 7.2-7.2 7.2-18.8 0-26L491.7 255.2C488.1 251.7 483.4 249.9 478.6 249.9z"  horiz-adv-x="1024" />

    
    <glyph glyph-name="guanbi" unicode="&#58925;" d="M571.733333 384l179.2 179.2C768 580.266667 768 605.866667 750.933333 622.933333S708.266667 640 691.2 622.933333L512 443.733333 332.8 622.933333C315.733333 640 290.133333 640 273.066667 622.933333S256 580.266667 273.066667 563.2L452.266667 384 273.066667 204.8C256 187.733333 256 162.133333 273.066667 145.066667s42.666667-17.066667 59.733333 0L512 324.266667l179.2-179.2C708.266667 128 733.866667 128 750.933333 145.066667s17.066667 42.666667 0 59.733333L571.733333 384z"  horiz-adv-x="1024" />

    
    <glyph glyph-name="shengri" unicode="&#58899;" d="M858.072947 63.609992l-22.957875 0L835.115072 96.365001l0 14.120602L835.115072 319.186855c0 36.846186-29.870308 66.716494-66.716494 66.716494L254.111488 385.90335c-36.846186 0-66.716494-29.870308-66.716494-66.716494l0-208.700229 0-14.120602 0-32.755008-25.51614 0c-16.70752 0-30.252001-13.544481-30.252001-30.252001 0-16.70752 13.544481-30.252001 30.252001-30.252001l696.194092 0c16.70752 0 30.252001 13.544481 30.252001 30.252001C888.324948 50.065512 874.780467 63.609992 858.072947 63.609992zM797.766442 62.904934 225.255277 62.904934 225.255277 179.044048c4.216022 11.472286 15.231913 34.648125 28.871561 34.234709 22.512736-0.682545 15.008832-21.292955 30.016641-21.292955 34.110889 0 42.296315 49.262984 41.614793 60.861136-0.682545 11.597129 4.093225 34.109866 18.419512 36.839023 14.326287 2.729158 30.016641-17.055444 34.792411-29.335119 4.77577-12.279674 21.148669-20.466124 21.148669-20.466124 19.783579 0 42.163285 14.406105 45.708018 36.156478-3.41068 35.474956 7.503904 45.025473 21.148669 45.025473 31.381731-1.364067 34.109866-43.661406 34.109866-43.661406-2.729158-26.605961-24.559349-75.724659-25.241894-105.741299 2.046612-1.364067-9.550517-49.118698 37.20332-54.575989 46.753837-5.457292 43.979654 37.521568 43.979654 37.521568 0.682545 29.335119-24.559349 97.55485-21.830191 114.610294 2.729158 17.055444 3.41068 33.428344 25.241894 34.792411 34.792411 2.729158 21.148669-55.94108 21.148669-55.94108 0.682545-16.372899 2.729158-47.75463 30.699186-49.801243 39.568181-1.364067 45.708018 43.661406 45.025473 55.258535-0.682545 11.597129-23.876804 40.249703-13.643742 53.211922s17.055444 10.915607 26.605961 10.915607c24.559349 0 43.661406-50.482765 47.072085-53.894468 3.41068-3.41068 15.690354-0.682545 15.690354-0.682545 28.652574 37.521568 36.156478 35.474956 36.156478 35.474956 22.227234 4.939499 28.575826-28.440749 28.575826-28.440749L797.768489 62.904934zM699.91995 514.130779l-16.83134 0c0.089028 0.500397 0.144286 1.013073 0.144286 1.539053l0 82.879616c0 4.806469-3.895727 8.702196-8.702196 8.702196l-48.087205 0c-4.806469 0-8.702196-3.895727-8.702196-8.702196l0-82.879616c0-0.525979 0.054235-1.038656 0.144286-1.539053l-82.152045 0c0.089028 0.500397 0.144286 1.013073 0.144286 1.539053l0 82.879616c0 4.806469-3.895727 8.702196-8.702196 8.702196l-48.087205 0c-4.806469 0-8.702196-3.895727-8.702196-8.702196l0-82.879616c0-0.525979 0.054235-1.038656 0.144286-1.539053l-83.175351 0c0.089028 0.500397 0.144286 1.013073 0.144286 1.539053l0 82.879616c0 4.806469-3.895727 8.702196-8.702196 8.702196l-48.087205 0c-4.806469 0-8.702196-3.895727-8.702196-8.702196l0-82.879616c0-0.525979 0.054235-1.038656 0.144286-1.539053l-0.458441 0c-32.04074 0-58.014298-25.973558-58.014298-58.014298l0-103.668081 494.256894 0L757.936295 456.116481C757.934249 488.157221 731.960691 514.130779 699.91995 514.130779zM720.92638 385.550309 299.493072 385.550309l0 58.245566c0 17.369599 13.057387 31.449269 30.425963 31.449269L691.523723 475.245144c17.369599 0 30.425963-14.080693 30.425963-31.449269L720.92638 385.550309zM346.223373 782.919549c0 0 65.491597-55.258535 64.809051-102.33062s-36.156478-53.894468-38.885636-57.305147c0 0 11.597129 59.35176-12.96222 60.034305 0 0-43.319621-12.96222-7.503904-64.12753 0 0-47.75463 4.093225-49.801243 57.305147 0 0-12.96222 24.559349 43.661406 60.715827C345.541851 737.211531 353.7283 746.762047 346.223373 782.919549zM494.944556 782.919549c0 0 65.491597-55.258535 64.809051-102.33062-0.682545-47.072085-36.156478-53.894468-38.885636-57.305147 0 0 11.597129 59.35176-12.96222 60.034305 0 0-43.319621-12.96222-7.503904-64.12753 0 0-47.75463 4.093225-49.801243 57.305147 0 0-12.96222 24.559349 43.661406 60.715827C494.26201 737.211531 502.44846 746.762047 494.944556 782.919549zM642.300648 782.919549c0 0 65.491597-55.258535 64.809051-102.33062-0.682545-47.072085-36.156478-53.894468-38.885636-57.305147 0 0 11.597129 59.35176-12.96222 60.034305 0 0-43.319621-12.96222-7.503904-64.12753 0 0-47.75463 4.093225-49.801243 57.305147 0 0-12.96222 24.559349 43.661406 60.715827C641.618103 737.211531 649.804553 746.762047 642.300648 782.919549z"  horiz-adv-x="1024" />

    
    <glyph glyph-name="xiaoxizhongxin" unicode="&#59209;" d="M959.660646 768.121518 63.977104 768.121518c-63.977104 0-63.977104-64.976874-63.977104-63.977104l0-640.110773c0-63.977104 63.977104-63.977104 63.977104-63.977104l895.684566 0c0-0.998747 63.978127 0 63.978127 63.977104L1023.639796 704.144414C1022.639003 705.143161 1024.639566 768.121518 959.660646 768.121518zM351.083054 398.636349 63.977104 111.528352 63.977104 651.857561 351.083054 398.636349zM101.354386 704.144414 922.124751 704.144414 511.74008 336.765209 101.354386 704.144414zM399.656329 355.795635l112.083751-98.855472 112.01519 98.795097 291.699572-291.701618L107.895359 64.033641 399.656329 355.795635zM672.327522 398.57495l287.333124 253.422803 0-540.754904L672.327522 398.57495z"  horiz-adv-x="1040" />

    
    <glyph glyph-name="baobiaotongji" unicode="&#58959;" d="M511.70816 831.97952c-247.27552 0-447.72864-200.45312-447.72864-447.72352 0-247.27552 200.45312-447.72352 447.72864-447.72352 247.2704 0 447.72352 200.448 447.72352 447.72352C959.43168 631.5264 758.97856 831.97952 511.70816 831.97952zM316.84608 160.38912 209.88416 160.38912l0 127.70304 106.96704 0L316.8512 160.38912zM557.50656 160.38912l-106.9568 0L450.54976 458.35264l106.9568 0L557.50656 160.38912zM798.17216 160.38912l-106.96192 0L691.21024 586.04544l106.96192 0L798.17216 160.38912z"  horiz-adv-x="1024" />

    
    <glyph glyph-name="diannaoban" unicode="&#58931;" d="M815.666626 727.4277 209.015919 727.4277c-44.669362 0-80.886215-36.20662-80.886215-80.886215l0-424.653653c0-44.667316 36.217876-80.887238 80.886215-80.887238l606.650707 0c44.667316 0 80.885192 36.219923 80.885192 80.887238L896.551818 646.540462C896.551818 691.22108 860.333942 727.4277 815.666626 727.4277zM512.359692 161.222147c-22.343891 0-40.453341 18.10945-40.453341 40.442084 0 22.334681 18.10945 40.442084 40.453341 40.442084 22.333658 0 40.443108-18.107403 40.443108-40.442084C552.803823 179.331597 534.694373 161.222147 512.359692 161.222147zM835.88818 262.328893 188.802552 262.328893 188.802552 666.763039l647.084605 0L835.887157 262.328893zM653.912615 100.557486 370.808816 100.557486c-16.755616 0-30.332842-13.58439-30.332842-30.333866 0-16.744359 13.577227-30.331819 30.332842-30.331819l283.102776 0c16.746406 0 30.3134 13.586436 30.3134 30.331819C684.226015 86.972073 670.659021 100.557486 653.912615 100.557486z"  horiz-adv-x="1024" />

    
    <glyph glyph-name="fanhui" unicode="&#58887;" d="M624.789 691.952l-39.583 39.584-365.646-365.721 365.646-365.679 39.583 39.583-326.126 326.12z"  horiz-adv-x="1024" />

    
    <glyph glyph-name="yinxingqia" unicode="&#58914;" d="M967.104 725.312 56.896 725.312C25.472 725.312 0 699.84 0 668.416l0-56.896 0-19.008 37.952 0 948.16 0L1024 592.512 1024 611.584 1024 668.416C1024 699.84 998.592 725.312 967.104 725.312zM37.952 478.784 0 478.784l0-19.008 0-360.256c0-31.424 25.472-56.896 56.896-56.896l910.272 0c31.424 0 56.896 25.408 56.896 56.896L1024.064 459.84 1024.064 478.784l-37.888 0L37.952 478.784zM113.792 308.096l227.584 0 0-37.888L113.792 270.208 113.792 308.096zM493.056 156.416 113.792 156.416l0 37.952 379.264 0L493.056 156.416zM910.272 193.28c0-20.288-16.768-36.8-37.376-36.8l-76.992 0c-20.608 0-37.312 16.512-37.312 36.8l0 2.24c0 20.288 16.704 36.8 37.312 36.8l76.992 0c20.608 0 37.376-16.512 37.376-36.8L910.272 193.28z"  horiz-adv-x="1025" />

    
    <glyph glyph-name="wode" unicode="&#58882;" d="M513.528819 360.510006c125.7234 0 228.006947 102.58747 228.006947 228.684376 0 126.103046-102.283548 228.696656-228.006947 228.696656-125.726469 0-228.012064-102.592586-228.012064-228.696656C285.517779 463.096453 387.80235 360.510006 513.528819 360.510006zM345.883635 589.194382c0 92.817965 75.205842 168.329776 167.646208 168.329776 92.437296 0 167.641091-75.512834 167.641091-168.329776 0-92.810802-75.203796-168.31852-167.641091-168.31852C421.089477 420.875862 345.883635 496.382557 345.883635 589.194382zM687.069271 337.257419c-6.880711 4.226255-11.899004 7.129374-16.777105 9.707083-14.712073 7.777127-33.010835 2.13257-40.788985-12.579503-3.767813-7.127328-4.53427-15.296381-2.157129-22.99983 2.375094-7.704472 7.609305-14.022365 14.737656-17.790178 3.674693-1.942235 7.68196-4.26821 13.394055-7.777127 80.912821-49.701982 132.732024-139.272997 136.397506-234.969523-9.629311-5.470595-30.913057-14.4542-66.654073-22.709211-55.831586-12.895705-129.034818-19.710924-211.694423-19.710924-82.660628 0-155.862837 6.816243-211.694423 19.709901-35.732829 8.251941-57.013505 17.2335-66.644863 22.704095 3.935636 99.227955 61.47205 192.960757 147.992589 240.181221 1.803066 0.984421 3.428076 1.848091 4.957919 2.638083 14.784728 7.643074 20.594037 25.888624 12.951987 40.671305-3.702322 7.163143-9.972119 12.455683-17.655102 14.901385-7.684006 2.445702-15.858176 1.752924-23.019273-1.950422-1.964748-1.01512-3.977591-2.086521-6.155187-3.275603-53.56394-29.233811-98.685603-72.901357-130.485867-126.284171-32.165584-53.992705-49.166793-115.465778-49.166793-177.773869 0-25.079188 25.63689-38.865169 34.06177-43.394323 15.541975-8.355295 37.193087-16.315594 62.616106-23.016203 44.088124-11.622712 121.903397-25.478278 242.243183-25.478278 120.328529 0 198.144826 13.854543 242.238067 25.477254 25.426089 6.704702 47.079248 14.662955 62.619176 23.016203 8.42488 4.530177 34.063817 18.314111 34.065863 43.395346C852.447832 160.676725 789.078573 274.596288 687.069271 337.257419z"  horiz-adv-x="1024" />

    
    <glyph glyph-name="mima" unicode="&#59058;" d="M757.621117 496.508423l-27.533077 0L730.08804 603.190141c0 128.253012-91.396593 228.690516-221.245963 228.690516-130.370233 0-219.212654-102.577237-219.212654-228.690516L289.629423 496.508423l-27.533077 0c-60.71992 0-110.107747-50.130747-110.107747-111.790062l0-335.327208c0-61.659315 49.387827-111.790062 110.107747-111.790062l495.52477 0c60.71992 0 110.109794 50.130747 110.109794 111.790062l0 335.327208C867.73091 446.377676 818.341037 496.508423 757.621117 496.508423L757.621117 496.508423zM344.674087 603.190141c0 95.241154 64.147996 172.794461 164.169013 172.794461 98.974176 0 166.178787-75.894528 166.178787-172.794461L675.021887 496.508423 344.674087 496.508423 344.674087 603.190141 344.674087 603.190141zM812.663734 49.391153c0-30.829146-24.694425-55.895031-55.042617-55.895031L262.096347-6.503878c-30.349215 0-55.06513 25.065885-55.06513 55.895031l0 335.327208c0 30.830169 24.715915 55.895031 55.06513 55.895031l495.52477 0c30.348192 0 55.042617-25.066909 55.042617-55.895031L812.663734 49.391153 812.663734 49.391153zM509.846964 328.866309c-30.392194 0-55.04364-25.065885-55.04364-55.93801 0-20.691251 11.08036-38.740326 27.533077-48.40443l0-91.335195c0-15.414061 12.314467-27.90249 27.510564-27.90249 15.217586 0 27.533077 12.488429 27.533077 27.90249l0 91.338265c16.455787 9.665127 27.5341 27.713178 27.5341 48.40136C564.915164 303.801447 540.261671 328.866309 509.846964 328.866309L509.846964 328.866309z"  horiz-adv-x="1024" />

    
    <glyph glyph-name="laohuji" unicode="&#58951;" d="M228.349755 771.43703l-93.073792 0c-38.566364 0-70.120011-31.553647-70.120011-70.120011l0-631.268384c0-38.566364 31.553647-70.120011 70.120011-70.120011l93.073792 0c38.566364 0 70.120011 31.553647 70.120011 70.120011L298.469765 701.317019C298.469765 739.883383 266.915096 771.43703 228.349755 771.43703zM260.095783 87.827557c0-27.842115-22.779819-50.622958-50.622958-50.622958l-57.366545 0c-27.842115 0-50.622958 22.780843-50.622958 50.622958L101.483322 681.494555c0 27.842115 22.780843 50.622958 50.622958 50.622958l57.366545 0c27.843138 0 50.622958-22.780843 50.622958-50.622958L260.095783 87.827557zM625.051799 831.153086 398.948201 831.153086c-38.566364 0-70.120011-31.553647-70.120011-70.120011l0-754.065128c0-38.566364 31.553647-70.120011 70.120011-70.120011l226.103598 0c38.566364 0 70.120011 31.553647 70.120011 70.120011L695.17181 761.033076C695.17181 799.59944 663.61714 831.153086 625.051799 831.153086zM656.797827 24.745846c0-27.842115-22.779819-50.622958-50.622958-50.622958l-190.396351 0c-27.842115 0-50.622958 22.780843-50.622958 50.622958L365.155561 741.210611c0 27.842115 22.780843 50.622958 50.622958 50.622958l190.396351 0c27.843138 0 50.622958-22.780843 50.622958-50.622958L656.797827 24.745846zM517.365194 216.348676l-70.520123 0c9.387811 92.989881 43.237757 181.40763 101.548814 265.250176L394.660548 481.598852l0 58.94346 229.895971 0 0-53.049217C558.730301 402.330484 523.007705 311.949011 517.365194 216.348676zM889.405559 769.754714l-93.073792 0c-38.566364 0-70.120011-31.553647-70.120011-70.120011l0-631.268384c0-38.566364 31.553647-70.120011 70.120011-70.120011l93.073792 0c38.566364 0 70.120011 31.553647 70.120011 70.120011L959.52557 699.634704C959.52557 738.201068 927.9709 769.754714 889.405559 769.754714zM921.151587 86.144218c0-27.842115-22.779819-50.622958-50.622958-50.622958l-57.366545 0c-27.842115 0-50.622958 22.780843-50.622958 50.622958L762.539126 679.812239c0 27.842115 22.780843 50.622958 50.622958 50.622958l57.366545 0c27.843138 0 50.622958-22.780843 50.622958-50.622958L921.151587 86.144218zM183.976128 281.840272l-37.919634 0c5.047969 50.001811 23.249517 97.54564 54.604642 142.629441l-82.664721 0 0 31.694863 123.618459 0 0-28.525684C206.217688 381.844917 187.009208 333.246059 183.976128 281.840272zM846.016353 281.840272l-37.919634 0c5.047969 50.001811 23.249517 97.54564 54.604642 142.629441l-82.664721 0 0 31.694863 123.618459 0 0-28.525684C868.258936 381.844917 849.050456 333.246059 846.016353 281.840272z"  horiz-adv-x="1024" />

    
    <glyph glyph-name="huo" unicode="&#58999;" d="M566.904471-66.320219c-15.758915 0-29.164227 12.075013-30.596855 28.03859-1.432629 16.884552 11.051707 31.722492 27.936259 33.257451 23.945365 2.046612 65.696258 21.3871 74.803683 26.4013 143.876851 79.101569 219.703841 175.394682 225.434356 286.116413 4.195555 82.58081-31.4155 158.305469-62.114686 207.321836-14.326287 22.922059-29.266557 42.87653-43.081191 59.35176-1.023306-3.990894-2.251274-8.084119-3.581572-12.177344-11.154038-33.871435-31.620162-65.184605-56.07718-85.85539-7.981788-6.753821-18.828834-8.902764-28.857235-5.832845-9.92607 3.069919-17.703197 11.051707-20.466124 21.080108-44.002167 157.179832-129.857557 230.755548-181.63685 262.171048-1.227967-51.779294-15.042601-105.70753-41.136909-161.170726-30.903847-65.389266-78.589916-130.880863-138.146337-189.413977l-0.102331-0.102331c-12.075013-11.870352-31.517831-11.665691-43.388183 0.409322s-11.665691 31.517831 0.409322 43.388183l0 0 0 0c7.981788 7.879458 6.856152 18.624173-3.581572 38.578644-10.233062-23.12672-23.12672-45.025473-35.815717-66.617234-24.457018-41.546232-47.481408-80.84119-47.89073-122.285091-1.227967-124.843356 64.570621-204.149587 120.033817-248.765737 42.97886-34.58775 99.260701-43.899836 146.94677-24.354688 25.889647 10.642384 48.197722 25.889647 66.310242 45.434795 20.670785 22.308075 31.108508 47.788399 31.210839 75.519997 0 19.442818-5.321192 33.257451-5.423523 33.359782-6.65149 15.554254 0.613984 33.666774 16.270569 40.215934s33.666774-0.613984 40.215934-16.270569c1.023306-2.455935 10.335393-25.173332 10.335393-57.407478 0-30.085202-8.28878-74.803683-47.481408-117.27089-24.252357-26.196639-53.825906-46.560432-88.106664-60.579727-23.945365-9.82374-49.425689-14.633279-74.906014-14.633279-47.174416 0-94.553493 16.47523-133.74612 47.89073-40.011272 32.131815-72.347748 69.687152-96.088452 111.540376-31.722492 55.872518-47.481408 118.294197-46.867424 185.627744 0.613984 57.8168 28.959565 106.116853 56.384172 152.779615 23.024389 39.090297 44.718481 76.133981 47.379077 114.507964 0.920976 13.405311 10.540054 24.661679 23.638373 27.731598 13.098319 3.069919 26.708292-2.762927 33.462113-14.428617 4.707209-8.084119 9.82374-16.168238 15.247262-24.661679 9.619078-15.144932 19.545148-30.699186 27.015284-46.458101 79.30623 98.749048 117.475552 204.354248 103.456257 292.665573-1.63729 10.437723 2.148943 20.977777 10.130731 27.936259 7.879458 6.958482 18.828834 9.312086 28.959565 6.344498 2.046612-0.613984 50.448996-15.349593 107.24249-63.444984 32.745798-27.731598 61.910025-61.193711 86.776366-99.363032 20.875446-32.029484 38.680974-67.435878 53.314253-105.70753 2.558265 5.321192 4.809539 10.847046 6.65149 16.47523 7.163143 21.694091 7.674796 42.262546 1.63729 54.849212s-2.865257 27.629267 7.674796 36.634362c10.642384 9.107425 25.991977 9.82374 37.453007 1.944282 21.796422-15.042601 69.175499-61.398372 110.312408-127.09463 35.406394-56.486502 76.440973-144.490835 71.426773-243.035222-3.172249-62.217017-24.354688-121.057123-62.72867-174.883029-42.97886-60.170404-108.368126-114.712625-194.325847-161.887041-0.511653-0.306992-56.895825-30.085202-99.05604-33.769105C568.746422-66.217888 567.825446-66.320219 566.904471-66.320219z"  horiz-adv-x="1024" />

    
    <glyph glyph-name="sousuo" unicode="&#58897;" d="M918.188092 59.952696L771.288394 206.862627c108.188025 147.710157 95.54917 356.274286-37.931914 489.759463-147.444097 147.455353-386.53652 147.455353-533.977547 0-147.467633-147.455353-147.467633-386.53038 0-533.983687 133.472897-133.4862 342.051353-146.126079 489.75844-37.930891L836.045257-22.200372c22.683628-22.683628 59.46637-22.683628 82.141812 0 22.711258 22.683628 22.711258 59.4633 0.001023 82.153068zM260.992199 224.257809c-113.423259 113.426329-113.423259 297.324686 0 410.751015 113.426329 113.429399 297.324686 113.429399 410.748968 0 113.435539-113.426329 113.435539-297.324686 0-410.751015-113.423259-113.426329-297.321616-113.426329-410.748968 0z"  horiz-adv-x="1024" />

    
    <glyph glyph-name="shouye" unicode="&#58918;" d="M882.036364 816.872727h-123.345455-4.654545-2.327273c-4.654545 0-6.981818-2.327273-11.636364-4.654545-9.309091-9.309091-9.309091-23.272727 0-32.581818l62.836364-65.163637 62.836364-65.163636c9.309091-9.309091 23.272727-9.309091 32.581818 0 2.327273 2.327273 4.654545 4.654545 4.654545 9.309091v2.327273 2.327272l4.654546 116.363637c2.327273 37.236364-25.6 37.236364-25.6 37.236363z m30.254545-365.381818c-2.327273 4.654545-318.836364 337.454545-318.836364 337.454546-20.945455 23.272727-58.181818 34.909091-81.454545 34.90909s-58.181818-11.636364-79.127273-34.90909c0 0-318.836364-332.8-318.836363-337.454546-11.636364-13.963636-20.945455-23.272727-20.945455-39.563636v-4.654546c0-46.545455 46.545455-93.090909 93.090909-93.090909h23.272727v-286.254545c0-48.872727 39.563636-86.109091 93.09091-86.109091s93.090909 39.563636 93.090909 86.109091V314.181818h232.727272v-286.254545c0-48.872727 39.563636-86.109091 93.090909-86.109091s93.090909 39.563636 93.09091 86.109091V314.181818h23.272727c46.545455 0 81.454545 41.890909 81.454545 88.436364 2.327273 0 4.654545 27.927273-6.981818 48.872727z"  horiz-adv-x="1024" />

    
    <glyph glyph-name="youxiang" unicode="&#58896;" d="M19.2 846.078v-668.16h985.6v668.16h-985.6zM876.8 782.078l-366.080-281.6-366.080 281.6h732.16zM83.2 241.918v506.88l427.52-328.96 430.080 331.52v-509.44h-857.6z"  horiz-adv-x="1024" />

    
    <glyph glyph-name="laba" unicode="&#58895;" d="M1054.363826-60.727652l-48.306087 35.884522c88.954435 120.164174 135.92487 261.565217 135.92487 408.84313 0 148.390957-46.83687 294.733913-131.873392 412.093217l48.662261 35.394783C1151.154087 703.933217 1202.086957 545.03513 1202.086957 384c0-160.322783-51.110957-314.10087-147.723131-444.727652zM812.521739 86.594783a539.603478 539.603478 0 0 1 89.043478 297.405217c0 108.944696-31.966609 213.971478-92.42713 303.682783l49.819826 33.702956A601.444174 601.444174 0 0 0 961.669565 384c0-117.893565-34.237217-232.18087-98.971826-330.573913l-50.176 33.168696zM0 203.286261V564.713739h259.561739L661.147826 896v-1024l-401.67513 331.286261H0z m601.043478-202.440348V767.643826L281.288348 504.475826H60.104348v-240.951652h221.228522l319.710608-262.678261z"  horiz-adv-x="1202" />

    
    <glyph glyph-name="dot" unicode="&#58883;" d="M384 384c0-70.692 57.308-128 128-128s128 57.308 128 128c0 70.692-57.308 128-128 128-70.692 0-128-57.308-128-128z"  horiz-adv-x="1024" />

    
    <glyph glyph-name="lingdang" unicode="&#58891;" d="M873.984 85.504s14.848 31.744-66.048 108.032c-80.896 76.288-70.144 273.92-70.144 407.552 0 133.632-201.728 136.704-201.728 136.704h-38.4s-201.728-2.56-201.728-136.704 10.752-331.264-70.144-407.552c-80.896-76.288-66.048-108.032-66.048-108.032v-31.744s-4.096-29.696 38.4-29.696h213.504v-5.12c0-58.368 47.104-105.472 105.472-105.472s105.472 47.104 105.472 105.472v5.12h213.504c42.496 0 38.4 29.696 38.4 29.696v31.744zM517.12 802.816m-51.2 0a51.2 51.2 0 1 1 102.4 0 51.2 51.2 0 1 1-102.4 0Z"  horiz-adv-x="1024" />

    
    <glyph glyph-name="shuaxin" unicode="&#59077;" d="M926.829 363.714c0.335 6.856 0.51 13.753 0.51 20.692 0 229.387-185.954 415.342-415.342 415.342-79.914 0-154.525-22.602-217.853-61.726-15.051-8.086-25.284-23.972-25.284-42.251 0-26.475 21.462-47.937 47.939-47.937a47.698 47.698 0 0 1 27.506 8.688c48.746 30.115 106.182 47.509 167.692 47.509 176.525 0 319.627-143.102 319.627-319.627 0-6.953-0.248-13.848-0.687-20.692h-92.915L881.01 158.941 1024 363.714h-97.171zM707.203 120.166a47.695 47.695 0 0 1-27.507-8.69c-48.748-30.116-106.184-47.511-167.694-47.511-176.525 0-319.626 143.105-319.626 319.63 0 6.953 0.249 13.848 0.686 20.691h92.915L142.989 609.059 0 404.286h97.172a421.348 421.348 0 0 1-0.51-20.691c0-229.386 185.954-415.343 415.342-415.343 79.915 0 154.526 22.602 217.853 61.727 15.05 8.084 25.283 23.971 25.283 42.253 0 26.472-21.461 47.934-47.937 47.934z"  horiz-adv-x="1024" />

    
    <glyph glyph-name="arrow" unicode="&#58884;" d="M512.133 271.019l-292.16 292.155c-12.27 12.28-32.186 12.28-44.457 0-12.281-12.27-12.281-32.186 0-44.457l314.388-314.388c12.27-12.28 32.186-12.28 44.457 0l314.387 314.388c6.14 6.136 9.211 14.183 9.211 22.228s-3.071 16.092-9.211 22.228c-12.27 12.28-32.186 12.28-44.457 0l-292.159-292.155z"  horiz-adv-x="1024" />

    
    <glyph glyph-name="red-dot" unicode="&#58885;" d="M402.986 405.333c0-70.692 57.308-128 128-128s128 57.308 128 128c0 70.692-57.308 128-128 128-70.692 0-128-57.308-128-128z"  horiz-adv-x="1024" />

    
    <glyph glyph-name="kefu-" unicode="&#58942;" d="M236.8 376.96a293.12 293.12 0 0 1 71.68-111.36 29.44 29.44 0 0 1 13.44-28.16l24.96-16a29.44 29.44 0 1 1 32.64 49.92l-25.6 15.36a29.44 29.44 0 0 1-26.24 0 261.76 261.76 0 0 0-58.24 87.68H288.64v58.24a23.68 23.68 0 0 1 19.84-9.6 17.92 17.92 0 0 1 8.96 3.84A216.32 216.32 0 0 1 512 277.12a179.84 179.84 0 0 1 56.32 8.96 231.68 231.68 0 0 1 139.52 146.56 17.92 17.92 0 0 1 8.96-3.84 21.76 21.76 0 0 1 17.92 7.04v-55.68H780.16a42.88 42.88 0 0 1 44.8 40.96l5.12 128a42.88 42.88 0 0 1-24.32 40.32 377.6 377.6 0 0 1-8.32 45.44 349.44 349.44 0 0 1-74.24 144A286.72 286.72 0 0 1 567.68 871.04 267.52 267.52 0 0 1 512 877.44a278.4 278.4 0 0 1-211.2-100.48 350.08 350.08 0 0 1-77.44-144.64 376.32 376.32 0 0 1-8.96-46.72 42.88 42.88 0 0 1-22.4-39.04l5.76-128a42.88 42.88 0 0 1 39.04-41.6z m330.88-48A142.08 142.08 0 0 0 512 320C416 320 337.92 414.08 337.92 533.12a261.76 261.76 0 0 0 7.04 59.52 112 112 0 0 0 64 39.68 123.52 123.52 0 0 0 64 0 128 128 0 0 0 69.76-45.44 204.16 204.16 0 0 1 30.72-30.72 181.76 181.76 0 0 1 110.72-44.16 214.4 214.4 0 0 0-116.48-183.04zM272 632.32A256 256 0 0 0 512 832a216.96 216.96 0 0 0 58.88-8.32 270.72 270.72 0 0 0 178.56-192 330.88 330.88 0 0 0 8.96-39.68h-17.92v-48.64h-6.4a17.28 17.28 0 0 1-8.32 0 298.88 298.88 0 0 1-16.64 88.32 232.32 232.32 0 0 1-140.16 147.2A179.84 179.84 0 0 1 512 789.12a216.96 216.96 0 0 1-197.12-156.8 298.24 298.24 0 0 1-16.64-88.32 17.28 17.28 0 0 1-8.32 0 17.92 17.92 0 0 1-8.32-3.84v49.92H262.4a326.4 326.4 0 0 0 9.6 42.24zM864 143.36a272 272 0 0 1-21.76 29.44A262.4 262.4 0 0 1 640 270.72h-6.4a112 112 0 0 0-51.2-26.24l-24.96-101.12L512-49.92l-45.44 192-23.68 100.48-17.92 7.04a64 64 0 0 0-64-64 64 64 0 0 0-32 6.4l-25.6 16a64 64 0 0 0-25.6 33.92A269.44 269.44 0 0 1 117.12 0v-97.92a14.08 14.08 0 0 0 5.12-14.72h779.52a14.08 14.08 0 0 0 5.12 14.72v101.12a264.96 264.96 0 0 1-42.88 140.16z"  horiz-adv-x="1024" />

    
    <glyph glyph-name="yu" unicode="&#58992;" d="M994.046102 583.332881c-25.773559 61.006102-62.741695 115.764068-109.689492 162.711865C837.322034 793.079322 782.564068 829.960678 721.644746 855.734237 658.469153 882.462373 591.388475 896 522.311864 896S386.154576 882.462373 322.978983 855.734237C262.059661 829.960678 207.301695 793.079322 160.267119 746.044746S76.351186 644.252203 50.577627 583.332881C23.849492 520.157288 10.311864 453.07661 10.311864 384s13.537627-136.157288 40.265763-199.332881C76.351186 123.747797 113.232542 68.989831 160.267119 21.955254c47.034576-47.034576 101.792542-83.915932 162.711864-109.689491 63.088814-26.728136 130.169492-40.265763 199.332881-40.265763s136.157288 13.537627 199.332882 40.265763c61.006102 25.773559 115.764068 62.741695 162.711864 109.689491 47.034576 47.034576 83.915932 101.792542 109.689492 162.711865 26.728136 63.088814 40.265763 130.169492 40.265762 199.332881s-13.537627 136.157288-40.265762 199.332881z m-33.149831-384.607457c-23.951186-56.667119-58.315932-107.60678-101.966102-151.256949-43.736949-43.736949-94.589831-78.014915-151.256949-101.966102-58.663051-24.818983-121.057627-37.402034-185.274576-37.402034s-126.611525 12.583051-185.274576 37.402034c-56.667119 23.951186-107.60678 58.315932-151.256949 101.966102-43.736949 43.736949-78.014915 94.589831-101.966102 151.256949C58.908475 257.388475 46.325424 319.783051 46.325424 384S58.908475 510.611525 83.727458 569.274576c23.951186 56.667119 58.315932 107.60678 101.966101 151.256949 43.736949 43.736949 94.589831 78.014915 151.256949 101.966102C395.700339 847.40339 458.094915 859.986441 522.311864 859.986441S648.92339 847.40339 707.586441 822.584407c56.667119-23.951186 107.60678-58.315932 151.256949-101.966102 43.736949-43.736949 78.014915-94.589831 101.966102-151.256949 24.818983-58.663051 37.402034-121.057627 37.402033-185.274576s-12.496271-126.698305-37.315254-185.361356zM801.308475 647.376271l1.995932-0.954576-1.995932 0.954576zM815.540339 366.470508c37.922712 56.493559 65.692203 116.284746 71.159322 183.538984-25.339661-28.637288-51.894237-56.059661-81.138983-81.052204-26.728136-25.426441-63.262373-30.459661-103.267797-28.02983-50.245424-0.954576-97.800678 15.707119-141.624406 57.014237 28.984407 10.587119 26.554576 27.769492 19.698983 54.237288-7.289492 28.376949 3.818305 70.117966 17.78983 114.028475-50.592542-24.211525-91.726102-72.634576-130.863729-126.177627-52.154576-3.297627-103.181017-12.583051-153.079322-28.29017-41.654237-17.96339-79.31661-44.604746-115.590508-71.072542-13.016949-9.545763-26.120678-16.835254-38.877288-26.814916-15.967458-12.496271-30.72-23.430508-31.501017-44.951864-0.347119-9.719322-0.520678-14.145085-0.867797-23.864407 6.942373-1.214915 10.15322-5.640678 10.760678-12.235932h-6.161356c6.855593-29.938983 16.661695-53.71661 32.889492-64.216949 49.030508-44.257627 108.301017-72.808136 179.894237-82.614237 62.481356-6.595254 120.623729 1.388475 172.170847 30.63322 16.314576-52.675254 37.228475-91.465763 65.084746-110.12339 2.60339 49.985085-5.03322 97.106441 62.741695 165.141695 24.558644 17.529492 46.774237 36.100339 39.831865 65.778983 38.35661 0.520678 117.84678-66.993898 211.221694-157.505085-17.96339 62.915254-42.869153 125.309831-80.271186 186.576271z m-617.871186-3.124067c-8.504407 0-15.36 8.070508-15.36 17.96339 0 9.892881 6.855593 17.96339 15.36 17.963389 8.504407 0 15.36-8.070508 15.36-17.963389 0-9.892881-6.855593-17.96339-15.36-17.96339z"  horiz-adv-x="1180" />

    
    <glyph glyph-name="yanzhengma1" unicode="&#58894;" d="M509.29664-102.468267c-147.4048 0-421.638827 218.118827-421.638827 424.359254V715.636053c0 9.536853 8.045227 17.257813 18.036054 17.452374l23.872853 0.38912c0.91136 0 94.52544 1.880747 191.064747 39.8336 99.068587 38.8608 162.90816 83.561813 163.556693 84.0192l14.144853 9.925973a19.063467 19.063467 0 0 0 10.898774 3.437227c3.82976 0 7.656107-1.102507 10.837333-3.372374l14.336-9.990826c0.648533-0.453973 64.556373-45.154987 163.556693-84.0192 96.60416-37.952853 190.221653-39.8336 191.194454-39.8336l23.678293-0.38912c9.997653-0.19456 18.04288-7.91552 18.04288-17.452374l0.191147-393.741653c-0.006827-206.240427-274.240853-424.362667-421.771947-424.362667z m356.693333 772.235947c-36.263253 2.72384-112.49664 12.004693-191.71328 43.144533-80.964267 31.788373-140.455253 67.47136-164.980053 83.24096-24.459947-15.704747-84.0192-51.452587-164.918613-83.24096-79.086933-31.074987-155.12576-40.352427-191.8464-43.144533v-347.876693c0-161.7408 238.87872-359.48544 356.765013-359.48544 45.677227 0 134.683307 36.78208 222.208 117.620053 84.33664 77.858133 134.68672 168.297813 134.68672 241.865387l-0.201387 347.876693zM475.4944 255.78496a32.11264 32.11264 0 0 0-22.89664-9.536853 32.365227 32.365227 0 0 0-22.96832 9.536853l-97.317547 97.24928c-12.649813 12.71808-12.649813 33.215147 0 45.868373 12.71808 12.71808 33.21856 12.71808 45.868374 0l74.417493-74.35264 187.88352 187.890347c12.711253 12.714667 33.211733 12.714667 45.868373 0 12.711253-12.653227 12.711253-33.153707 0-45.868373l-210.855253-210.786987z"  horiz-adv-x="1024" />

    
    <glyph glyph-name="shuaxin1" unicode="&#58888;" d="M512.179 831.94c-247.535 0-448.201-200.667-448.201-448.202s200.667-448.201 448.201-448.201c247.535 0 448.202 200.666 448.202 448.201 0 247.535-200.667 448.202-448.202 448.202zM510.318 103.504c-147.31 0-267.157 119.847-267.157 267.157 0 115.481 73.661 214.060 176.454 251.28 0.008 0.003 0.015 0.005 0.023 0.007 5.637 2.040 11.382 3.845 17.187 5.508 1.727 0.496 3.445 1.015 5.187 1.477 2.066 0.546 4.155 1.031 6.24 1.53 1.969 0.471 3.937 0.943 5.922 1.37 1.987 0.427 3.987 0.815 5.989 1.196 2.152 0.411 4.31 0.801 6.481 1.16 1.903 0.314 3.81 0.613 5.726 0.887 2.365 0.339 4.742 0.632 7.126 0.909 1.77 0.205 3.537 0.418 5.317 0.587 2.735 0.261 5.49 0.451 8.25 0.629 1.468 0.094 2.928 0.221 4.403 0.292 4.26 0.204 8.542 0.326 12.851 0.326 2 0 3.975-0.102 5.963-0.151l-12.795 42.147 0.107 0.060c-0.53 1.611-0.888 3.301-0.888 5.089 0 9.050 7.336 16.385 16.385 16.385 4.997 0 9.414-2.284 12.42-5.81l0.063 0.036 79.115-83.862c0.132-0.129 0.253-0.265 0.382-0.399l0.68-0.711-0.016-0.094c2.409-2.853 3.917-6.491 3.917-10.518 0-6.007-3.268-11.204-8.090-14.057l-0.025-0.144-102.681-60.235-0.067 0.067c-2.276-1.197-4.829-1.939-7.58-1.939-9.049 0-16.385 7.336-16.385 16.385 0 2.781 0.758 5.36 1.981 7.654l-0.070 0.070 0.809 1.293c0.044 0.067 0.082 0.137 0.127 0.204l27.255 43.576c-0.204 0.001-0.405 0.010-0.61 0.010-3.47 0-6.917-0.104-10.349-0.263-1.265-0.059-2.519-0.153-3.778-0.233-2.108-0.133-4.209-0.289-6.3-0.481-1.59-0.147-3.177-0.31-4.758-0.491-1.629-0.184-3.248-0.4-4.866-0.619-1.868-0.257-3.738-0.506-5.59-0.808-0.818-0.132-1.625-0.296-2.44-0.437-8.023-1.403-15.907-3.211-23.615-5.448-0.103-0.030-0.208-0.058-0.31-0.088-2.77-0.808-5.519-1.667-8.244-2.578-88.195-29.474-151.964-112.788-151.964-210.769 0-122.531 99.685-222.214 222.214-222.214 122.531 0 222.218 99.683 222.218 222.214 0 41.204-11.357 81.427-32.837 116.319l0.009 0.006c-6.281 10.591-2.868 24.284 7.69 30.668 10.454 6.322 23.993 3.102 30.531-7.139l0.041 0.025c25.847-41.981 39.508-90.351 39.508-139.88 0.001-147.309-119.846-267.156-267.16-267.156z"  horiz-adv-x="1024" />

    
    <glyph glyph-name="dian2" unicode="&#58889;" d="M253.15944862365717 384c0-144.52797889709473 116.63386344909667-261.69021606445307 260.50909996032715-261.69021606445307s260.50909996032715 117.16300964355467 260.50909996032715 261.69021606445307c0 144.52797889709473-116.63386344909667 261.69021606445307-260.50909996032715 261.69021606445307-143.8752365112305 0-260.50909996032715-117.16300964355467-260.50909996032715-261.69021606445307ZM513.6685485839844 754.78857421875c-203.85183334350583 0-369.12002563476557-166.01054191589355-369.12002563476557-370.78857421875s165.26896476745605-370.78857421875 369.12002563476557-370.78857421875 369.12002563476557 166.01054191589355 369.12002563476557 370.78857421875-165.26896476745605 370.78857421875-369.12002563476557 370.78857421875ZM513.6685485839844 40.02252960205078c-189.11375999450684 0-342.4247932434082 154.0070343017578-342.4247932434082 343.97747039794916 0 189.9712085723877 153.31180572509766 343.97747039794916 342.4247932434082 343.97747039794916s342.4247932434082-154.00626182556152 342.4247932434082-343.97747039794916c0-189.9712085723877-153.3110332489014-343.97747039794916-342.4247932434082-343.97747039794916Z"  horiz-adv-x="1024" />

    
    <glyph glyph-name="icon-yucunkuan" unicode="&#59006;" d="M855.7056 44.993536c0-37.666816-28.242944-75.32032-75.332608-75.32032H234.203136c-37.666816 0-75.332608 28.242944-75.332608 75.32032V308.656128h75.332608V44.99456h546.169856V308.656128h75.332608v-263.662592z m-386.082816 235.40736H356.625408v37.664768h94.164992l-75.332608 141.253632h56.501248l84.74112-141.253632 75.331584 141.253632h56.4992l-84.754432-141.253632h94.163968v-37.664768H544.94208l-9.421824-18.82112v-37.666816h122.40896v-37.665792H535.543808v-84.742144h-56.498176v84.742144H356.625408v37.665792h122.421248v37.666816l-9.423872 18.82112z m-363.22304 171.30496a117.44768 117.44768 0 0 1-44.215296-66.922496 218.513408 218.513408 0 0 1-6.831104-59.410432c0.459776-20.025344 10.759168 17.071104 15.025152 23.38816a139.813888 139.813888 0 0 0 51.216384 41.65632 201.126912 201.126912 0 0 0 75.800576 10.755072v-54.46144l130.942976 92.531712-131.113984 92.87168v-55.312384s-31.412224-2.392064-47.803392-5.80608a97.800192 97.800192 0 0 1-43.021312-19.290112zM968.704 421.653504H855.7056L497.876992 704.160768 290.714624 525.242368l-65.921024 37.664768L497.876992 798.32576 874.539008 496.9984H968.704v-75.344896z"  horiz-adv-x="1024" />

    
    <glyph glyph-name="jiaoyijilu" unicode="&#58908;" d="M702.08 686.72H321.92a75.946667 75.946667 0 0 1-76.16-75.733333v-529.706667h35.413333l78.506667 56.746667 76.16-56.746667L512 138.026667l76.16-56.746667 76.16 56.746667 78.506667-56.746667h35.413333V611.2a75.946667 75.946667 0 0 1-76.16 75.52z m-56.96-378.453333H378.88a18.986667 18.986667 0 1 0 0 37.76h266.24a18.986667 18.986667 0 1 0 0-37.76z m0 113.92H378.88a18.986667 18.986667 0 1 0 0 37.76h266.24a18.986667 18.986667 0 1 0 0-37.76z m0 113.066666H378.88a18.986667 18.986667 0 1 0 0 37.76h266.24a18.986667 18.986667 0 1 0 0-37.76z"  horiz-adv-x="1024" />

    
    <glyph glyph-name="chongzhi" unicode="&#58881;" d="M512-30.6A414.71 414.71 0 0 0 350.62 766a414.71 414.71 0 0 0 322.76-764A412 412 0 0 0 512-30.6z m2 784.6c-202.93 0-368-165.39-368-368.69s165.1-368.69 368-368.69S882 182 882 385.33 716.93 754 514 754zM295.55 505.34v37.8l206.63 5.2-29.36 39.15 40.41 25.26 38.86-51.3-18.34-15.52H735.1v-40.59H295.55zM655.83 365.7h-7.29l-0.43 0.08c-8.65 1.51-23.34 2.28-43.65 2.28-87 0-250-14.16-251.61-14.31l-2.49-0.22-27.48 30.71 142.19 138 57.78-8.5-117.78-112.55c83.83 8.56 176.67 10.09 206.33 10.36L571 468.31l38 19 110.1-128.45-39.43-24zM284.21 194.53l7.34 1.53c61 12.73 95.41 44.41 113.54 68.74 18 24.17 23.91 45.82 24.78 49.3v68.25h42.27l-5.69-83.95v-0.14c-5.1-40.2-33.7-76.71-82.71-105.58a333.29 333.29 0 0 0-72.52-31.6l-3.44-1zM607.62 160.9c-28.63 0.75-41.87 16-47.93 28.6a64.94 64.94 0 0 0-6.15 27V382.35h40.64l-1.38-124.83v-0.09c-2.29-48 19.48-52.88 21.93-53.28h49.81c13.58 2.19 23.52 8.18 29.54 17.8 14 22.44 3.42 57.82 3.31 58.18l-3.25 10.58 54.34-24.54-0.09-3.32c-1.43-52.08-19.35-77-34.14-88.73-16.47-13.07-32.68-13.22-33.36-13.22zM431.2 533.96h121.71v-28.62H431.2zM436.2 528.96h111.71v-18.62H436.2v18.62z"  horiz-adv-x="1024" />

    
    <glyph glyph-name="woyaoqukuan" unicode="&#58937;" d="M103.76 421.333h520.985c42.319 48.811 89.103 102.191 105.175 118.65H103.76v99.89h672.413v-98.161c0.209-0.218 0.434-0.443 0.514-0.54l24.768-28.017V616.151a48.264 48.264 0 0 1-48.264 48.263H126.726a48.264 48.264 0 0 1-48.264-48.263v-413.083a48.264 48.264 0 0 1 48.264-48.264h515.9v24.55H103.76v241.98zM942.24 301.398c0 8.583-9.443 17.6-11.687 19.53L773.486 498.596c-10.618 11.535-27.229 11.873-38.346 0.99-4.69-4.594-9.09-9.5-13.514-14.351-16.224-17.818-32.087-35.965-47.95-54.104-31.363-35.876-62.606-71.881-93.47-108.2-1.618-1.914-3.29-3.804-4.851-5.775-6.05-5.599-13.016-14.769-10.136-23.497 3.04-9.218 15.002-10.57 23.19-10.57h69.477v-157.678a16.088 16.088 0 0 1 16.088-16.088h158.868a16.088 16.088 0 0 1 16.088 16.088V284.28h73.498c17.633 0 19.82 13.208 19.813 17.118z m-104.29-7.53h-65.14v-36.407h65.14v-15.42h-65.14v-32.16h-39.4v32.16h-64.536v15.42h64.537v36.407h-64.537v15.413h64.537v5.88l-47.476 62.727h31.693l34.694-50.162h2.18l34.694 50.162h31.685l-48.079-63.515v-5.092h65.14v-15.413z m-666.508 58.746h289.583v-31.822H171.442z m0-74.07h209.626v-31.821H171.442z"  horiz-adv-x="1024" />

    
    <glyph glyph-name="zizhufanshuijilu" unicode="&#58941;" d="M462.08 0H268.8c-65.28 0-102.4 38.4-102.4 104.96V663.04C166.4 729.6 203.52 768 268.8 768h486.4c65.28 0 102.4-38.4 102.4-104.96V384c0-6.4-5.12-12.8-12.8-12.8-6.4 0-12.8 5.12-12.8 12.8V663.04c0 52.48-26.88 80.64-76.8 80.64H268.8c-49.92 0-76.8-28.16-76.8-80.64v-556.8c0-52.48 26.88-80.64 76.8-80.64h194.56c6.4 0 12.8-5.12 12.8-12.8s-6.4-12.8-14.08-12.8zM721.92 545.28H302.08c-6.4 0-12.8 5.12-12.8 12.8s5.12 12.8 12.8 12.8h419.84c6.4 0 12.8-5.12 12.8-12.8s-6.4-12.8-12.8-12.8zM572.16 371.2H302.08c-6.4 0-12.8 5.12-12.8 12.8s5.12 12.8 12.8 12.8h270.08c6.4 0 12.8-5.12 12.8-12.8s-6.4-12.8-12.8-12.8zM453.12 185.6H302.08c-6.4 0-12.8 5.12-12.8 12.8s5.12 12.8 12.8 12.8h151.04c6.4 0 12.8-5.12 12.8-12.8s-5.12-12.8-12.8-12.8zM844.8 111.36H536.32c-6.4 0-12.8 5.12-12.8 12.8s5.12 12.8 12.8 12.8H844.8c6.4 0 12.8-5.12 12.8-12.8s-5.12-12.8-12.8-12.8zM844.8 111.36c-2.56 0-6.4 1.28-7.68 2.56L714.24 225.28c-5.12 5.12-5.12 12.8-1.28 17.92 5.12 5.12 12.8 5.12 17.92 1.28l122.88-111.36c5.12-5.12 5.12-12.8 1.28-17.92-2.56-2.56-6.4-3.84-10.24-3.84zM721.92 0c-3.84 0-6.4 1.28-8.96 3.84-5.12 5.12-3.84 12.8 1.28 17.92l122.88 111.36c5.12 5.12 12.8 3.84 17.92-1.28 5.12-5.12 3.84-12.8-1.28-17.92L729.6 2.56c-1.28-1.28-5.12-2.56-7.68-2.56z"  horiz-adv-x="1024" />

    
    <glyph glyph-name="arrow-copy" unicode="&#58886;" d="M511.8669999999999 496.981l292.1599999999999-292.1550000000001c12.269999999999994-12.280000000000005 32.18599999999999-12.280000000000008 44.457-1.4210854715202004e-14 12.281000000000002 12.269999999999994 12.281000000000006 32.18599999999999 1.4210854715202004e-14 44.457l-314.38799999999986 314.38800000000003c-12.269999999999994 12.280000000000005-32.18599999999999 12.280000000000008-44.457 1.4210854715202004e-14l-314.38700000000006-314.38799999999986c-6.140000000000002-6.1359999999999975-9.211000000000002-14.182999999999995-9.21100000000001-22.228s3.070999999999996-16.092 9.210999999999991-22.228c12.269999999999994-12.280000000000005 32.18599999999999-12.280000000000008 44.457-1.4210854715202004e-14l292.15900000000005 292.15499999999986z"  horiz-adv-x="1024" />

    
    <glyph glyph-name="dui" unicode="&#58890;" d="M512 831.3c-247.2 0-447.3-200.4-447.3-447.6 0-246.9 200.2-447.1 447.3-447.1 246.9 0 447.3 200.2 447.3 447.1 0 247.2-200.4 447.6-447.3 447.6z m-40.7-590.9c-7.2-7.2-16.6-11-26.6-11s-19.5 3.8-26.4 11L308.5 354.5l32.2 30.9 104.2-108 240.2 242.5 31.8-31.5-245.6-248z"  horiz-adv-x="1024" />

    
    <glyph glyph-name="cuo1" unicode="&#58892;" d="M512-63.299999999999955C264.9-63.299999999999955 64.7 136.89999999999998 64.7 384S264.9 831.3 512 831.3 959.3 631.1 959.3 384 759.1-63.299999999999955 512-63.299999999999955z m139.7 634.4L504.1 423.5 362.9 564.8l-31.6-31.6 141.3-141.3-147.7-147.6 30.6-30.6 147.6 147.6L644.4 220l31.6 31.6-141.3 141.3 147.6 147.6-30.6 30.6z"  horiz-adv-x="1024" />

    
    <glyph glyph-name="arrow-left" unicode="&#58893;" d="M624.981 384.133l-292.155-292.16c-12.28-12.27-12.28-32.186 0-44.457 12.27-12.28099999 32.186-12.281 44.457 0l314.388 314.388c12.28 12.27 12.28 32.186 0 44.457l-314.388 314.387c-6.136 6.14-14.183 9.211-22.228 9.211s-16.092-3.071-22.228-9.21099999c-12.28-12.27-12.28-32.186-1e-8-44.45700001l292.15500001-292.159z"  horiz-adv-x="1024" />

    
    <glyph glyph-name="luxiangpeizhi" unicode="&#58902;" d="M919.1 599.8c23.4 14 42.1 2.4 42.1-21v-366.7c0-25.7-18.7-35-42.1-21L793 263.5c-23.4 14-42.1 28.1-42.1 51.4V478.5c0 23.4 18.7 35 42.1 49l126.1 72.3zM628.1 665.3H151.5c-49 0-88.7-39.7-88.7-88.7v-383.2c0-49 39.7-88.7 88.7-88.7h476.6c49 0 88.7 39.7 88.7 88.7V576.6c0 49-39.7 88.7-88.7 88.7zM259.5 517.5c-4.2-19.9-19.9-35.4-38.2-39.7-35.4-7.1-65.2 24.1-58.1 58.1 4.2 19.9 19.9 35.4 38.2 38.2 35.4 8.5 65.1-21.2 58.1-56.6z"  horiz-adv-x="1024" />

    
    <glyph glyph-name="mima1" unicode="&#58898;" d="M522.437 334.966c-46.67 0-84.677-37.81-84.677-84.677 0-33.674 19.89-62.424 48.246-76.012v-92.948c0-20.086 16.345-36.234 36.234-36.234 20.086 0 36.234 16.345 36.234 36.234v92.948c28.554 13.588 48.246 42.338 48.246 76.012 0.197 46.868-37.612 84.677-84.283 84.677z m350.326 169.157H147.89c-39.975 0-72.467-32.492-72.467-72.468v-483.249c0-39.975 32.492-72.468 72.467-72.468h724.874c39.975 0 72.468 32.493 72.468 72.468v483.25c0 40.172-32.493 72.467-72.468 72.467z m0-507.274c0-39.975-8.27-48.246-48.246-48.246H196.332c-39.975 0-48.246 8.27-48.246 48.246V383.41c0 39.976 8.27 48.246 48.246 48.246h628.185c39.975 0 48.246-8.27 48.246-48.246v-386.56zM167.778 540.554c20.087 0 36.431 15.95 37.022 36.037C237.49 715.028 361.748 818.215 510.228 818.215c115.987 0 217.009-63.212 271.36-156.75 5.71-12.8 18.51-21.662 33.28-21.662 20.086 0 36.43 16.345 36.43 36.43 0 7.878-2.56 15.164-6.695 21.072C777.846 812.702 653.391 890.88 510.228 890.88c-187.077 0-342.646-128.394-378.683-304.64-0.197-0.788-0.394-1.378-0.394-2.166-0.197-0.788-0.394-1.772-0.591-2.56h0.197c-0.197-1.182-0.197-2.363-0.197-3.545 0.197-20.677 16.738-37.415 37.218-37.415z"  horiz-adv-x="1024" />

    
    <glyph glyph-name="eduzhuanhuan" unicode="&#58962;" d="M99.244243 201.065311l232.129919 156.925728 30.90176-39.110463-220.517872-149.075635 220.859287-154.540734V85.888031c0 46.641247 42.463209 42.686726 42.46321 42.686726v0.002456h381.124989c82.563531 0 124.562514 17.431825 124.562514 102.031566v51.335092h49.861358l-0.007369-76.774209c0-84.602197-66.934574-127.652444-149.500561-127.652444h-398.669801v-100.759242c0-35.27384-25.42438-35.927196-37.877439-32.299353-5.558436 1.618652-11.956901 5.40615-11.956901 5.40615L99.238839 139.244596s-20.138339 11.296177-20.138339 30.79123c0 20.772291 20.143743 31.029484 20.143743 31.029485zM925.00924 566.639942l-232.135323-156.96994-30.901761 39.120288 220.522294 149.11739-220.863709 154.583718v-70.641017c0-46.656476-42.463209-42.701954-42.463209-42.701954H238.035665c-82.565741 0-124.585602-17.527618-124.585602-102.151921L113.477573 485.810506H63.616215v76.722629c0 84.624303 66.935557 127.689042 149.504737 127.689042H611.796402V791.009911c0 35.284156 25.42438 35.936038 37.877438 32.308441 5.558436-1.619143 11.956901-5.406396 11.956901-5.406396L925.014152 628.477851s20.138585-11.301089 20.138585-30.801056c0-20.779659-20.143497-31.036853-20.143497-31.036853z"  horiz-adv-x="1024" />

    


  </font>
</defs>
</svg>
