<?xml version="1.0" standalone="no"?><!DOCTYPE svg PUBLIC "-//W3C//DTD SVG 1.1//EN" "http://www.w3.org/Graphics/SVG/1.1/DTD/svg11.dtd"><svg t="1499494119384" class="icon" style="" viewBox="0 0 1024 1024" version="1.1" xmlns="http://www.w3.org/2000/svg" p-id="5447" xmlns:xlink="http://www.w3.org/1999/xlink" width="32" height="32"><defs><style type="text/css"></style></defs><path d="M226.1 603.459h178.786v29.156H226.1v-29.156z" fill="#d81e06" p-id="5448"></path><path d="M750.879 199.981h-477.79C134.417 199.981 22 312.43 22 451.118v121.845C22 711.602 134.417 824.02 273.089 824.02h477.79C889.583 824.02 1002 711.602 1002 572.963V451.118c0-138.688-112.417-251.137-251.121-251.137zM460.25 694.918h-55.364v-20.736H226.1v21.533h-55.363V427.703h271.425v109.594H226.1v24.596h234.15v133.025zM490.619 418.5h-53.051v-23.08H188.425v23.08h-53.051v-68.06h151.097a6592.877 6592.877 0 0 1-11.915-29.986l65.731-6.54c3.333 9.762 7.289 21.884 11.915 36.526h138.417v68.06z m399.092 0.749H669.405a2116.886 2116.886 0 0 1-1.34 49.224h179.729c-1.148 33.687-2.68 68.442-4.594 104.266s-3.765 58.092-5.487 66.832c-1.723 8.678-5.359 16.844-10.974 24.5-5.551 7.656-12.25 13.078-20.066 16.332-7.815 3.254-20.002 5.424-36.43 6.445-16.493 1.053-42.268 1.531-77.359 1.531-4.657-23.033-9.251-42.684-13.845-58.826 31.901 1.277 53.848 1.914 65.906 1.914 8.613 0 15.186-0.766 19.715-2.168 4.53-1.469 8.295-3.828 11.229-7.115 2.967-3.285 4.944-6.986 5.997-11.068 1.021-4.084 2.105-18.184 3.35-42.301 1.243-24.053 1.817-40.656 1.817-49.588H665.577c-7.847 73.451-43.959 132.529-108.43 177.191-6.412-9.156-20.257-26.096-41.519-50.723 28.28-18.439 49.813-39.238 64.487-62.461 14.674-23.16 23.287-46.002 25.871-68.314 2.552-22.412 4.146-54.263 4.784-95.703h-86.688v-50.722h159.741l-15.185-38.839 61.121-14.196c8.485 21.135 14.866 38.839 19.236 53.035h140.714v50.754h0.002z" fill="#d81e06" p-id="5449"></path><path d="M226.1 468.472h162.629v28.072H226.1v-28.072z" fill="#d81e06" p-id="5450"></path></svg>